<?xml version="1.0" standalone="no"?>
<!DOCTYPE svg PUBLIC "-//W3C//DTD SVG 20010904//EN"
 "http://www.w3.org/TR/2001/REC-SVG-20010904/DTD/svg10.dtd">
<svg version="1.0" xmlns="http://www.w3.org/2000/svg"
 width="288.000000pt" height="288.000000pt" viewBox="0 0 288.000000 288.000000"
 preserveAspectRatio="xMidYMid meet">
<metadata>
Created by potrace 1.11, written by Peter Selinger 2001-2013
</metadata>
<g transform="translate(0.000000,288.000000) scale(0.100000,-0.100000)"
fill="#000000" stroke="none">
<path d="M170 2357 c-19 -14 -70 -81 -70 -90 0 -4 51 -7 113 -7 l112 -1 -23
-19 c-15 -12 -47 -79 -87 -182 l-63 -163 69 -3 c84 -4 102 5 119 58 16 50 20
52 99 74 35 9 91 30 124 47 l61 30 24 -25 25 -25 -21 -55 -21 -56 35 0 c46 0
90 31 104 75 8 24 18 35 30 35 18 0 18 -2 -3 -60 -31 -89 -26 -94 108 -98 82
-2 113 1 130 12 21 14 27 14 57 -2 22 -12 57 -17 108 -17 64 0 82 4 123 28 54
32 79 65 81 107 1 27 4 30 34 30 29 0 32 -2 22 -19 -27 -52 -1 -106 63 -130
39 -15 340 -14 354 0 9 9 21 8 46 -5 44 -20 83 -20 121 -1 20 11 33 12 40 5 5
-5 55 -10 112 -10 99 0 104 1 181 40 68 34 82 45 98 80 11 24 25 40 35 40 16
0 15 -5 -4 -60 -31 -88 -24 -94 103 -98 90 -2 107 0 141 19 39 22 55 43 44 60
-3 5 -34 9 -70 9 -35 0 -64 2 -64 5 0 3 11 33 25 67 14 34 25 67 25 75 0 10
-22 13 -91 13 -101 0 -94 -7 -72 64 6 17 1 18 -60 14 -55 -3 -72 -9 -104 -34
-46 -38 -55 -82 -23 -114 19 -19 19 -23 6 -55 -14 -33 -17 -35 -65 -35 l-51 0
21 53 c33 82 39 98 39 103 0 2 -60 4 -132 4 -107 0 -141 -4 -173 -19 -58 -26
-104 -68 -113 -104 l-8 -32 -75 -2 -74 -3 35 16 c73 32 92 80 47 122 -23 22
-29 22 -323 22 -179 0 -314 -4 -337 -11 -51 -14 -127 -87 -127 -122 0 -25 -3
-27 -40 -27 l-39 0 24 63 c13 34 26 70 30 80 7 15 -2 17 -90 17 -89 0 -96 2
-90 18 4 9 10 27 12 40 5 21 2 22 -49 22 -54 0 -55 1 -50 25 8 43 -17 86 -62
106 -36 16 -68 19 -266 18 -162 0 -229 -3 -240 -12z m362 -113 c5 -3 8 -18 8
-33 0 -37 -39 -75 -97 -95 -42 -14 -44 -14 -38 2 4 9 17 45 29 80 l21 63 35
-6 c19 -4 38 -9 42 -11z m718 -199 c0 -3 -7 -21 -14 -40 -23 -55 -55 -43 -35
14 7 20 18 31 30 31 10 0 19 -2 19 -5z m420 -36 c0 -4 12 -12 28 -17 25 -10
23 -10 -20 -11 -50 -1 -53 3 -41 48 6 23 7 23 20 6 7 -11 13 -22 13 -26z m440
37 c0 -20 -25 -66 -36 -66 -17 0 -17 10 -4 44 5 14 16 26 25 26 8 0 15 -2 15
-4z"/>
<path d="M660 1785 c0 -63 1 -65 25 -65 24 0 25 2 25 65 0 63 -1 65 -25 65
-24 0 -25 -2 -25 -65z"/>
<path d="M730 1785 c0 -50 3 -65 14 -65 10 0 16 14 18 43 l3 42 23 -42 c20
-38 26 -43 57 -43 l35 0 0 66 c0 48 -3 65 -12 62 -7 -3 -15 -24 -18 -48 l-5
-43 -22 47 c-21 42 -26 46 -58 46 l-35 0 0 -65z"/>
<path d="M893 1838 c2 -7 13 -37 23 -65 17 -49 21 -53 50 -53 29 0 33 5 53 56
23 61 25 74 13 74 -4 0 -16 -22 -26 -50 -10 -27 -21 -48 -26 -45 -4 2 -13 25
-20 50 -11 40 -16 45 -42 45 -20 0 -29 -4 -25 -12z"/>
<path d="M1060 1785 l0 -65 60 0 c33 0 60 4 60 10 0 6 -16 10 -35 10 -24 0
-35 5 -35 15 0 10 10 15 30 15 17 0 30 5 30 10 0 6 -13 10 -30 10 -20 0 -30 5
-30 15 0 11 11 15 36 15 61 0 35 25 -29 28 l-57 3 0 -66z"/>
<path d="M1199 1848 c0 -2 -1 -31 -2 -66 -2 -62 -2 -62 26 -62 22 0 27 4 27
25 0 14 4 25 10 25 5 0 12 -11 16 -25 5 -19 13 -25 35 -25 32 0 34 3 19 30 -7
13 -7 21 0 25 17 11 11 54 -9 65 -17 8 -120 15 -122 8z m89 -40 c-7 -19 -38
-22 -38 -4 0 10 9 16 21 16 12 0 19 -5 17 -12z"/>
<path d="M1366 1834 c-33 -32 -16 -74 29 -74 19 0 37 -4 40 -10 4 -6 -10 -10
-34 -10 -23 0 -41 -5 -41 -10 0 -7 24 -10 63 -8 60 3 62 4 65 32 4 34 -6 46
-50 56 l-33 8 38 1 c26 1 37 6 37 16 0 21 -93 21 -114 -1z"/>
<path d="M1509 1848 c0 -2 -1 -31 -2 -66 -2 -62 -2 -62 26 -62 27 0 27 1 27
65 0 63 -1 65 -25 65 -14 0 -25 -1 -26 -2z"/>
<path d="M1596 1837 c-13 -10 -17 -24 -14 -62 l3 -50 70 0 70 0 3 50 c4 59
-11 75 -73 75 -23 0 -49 -6 -59 -13z m84 -57 c0 -36 -2 -40 -25 -40 -22 0 -25
4 -25 40 0 36 3 40 25 40 23 0 25 -4 25 -40z"/>
<path d="M1750 1785 c0 -75 17 -89 22 -17 l3 47 25 -47 c21 -43 28 -48 57 -48
l33 0 0 65 c0 37 -4 65 -10 65 -5 0 -10 -24 -11 -52 l0 -53 -27 53 c-24 47
-29 52 -59 52 l-33 0 0 -65z"/>
<path d="M1919 1848 c0 -2 -1 -31 -2 -66 l-2 -62 63 0 c34 0 62 4 62 10 0 6
-16 10 -35 10 -24 0 -35 5 -35 15 0 10 10 15 30 15 17 0 30 5 30 10 0 6 -13
10 -30 10 -20 0 -30 5 -30 15 0 10 10 15 30 15 20 0 30 5 30 15 0 12 -13 15
-55 15 -30 0 -55 -1 -56 -2z"/>
<path d="M2063 1843 c-8 -2 -13 -22 -13 -44 0 -38 1 -39 34 -39 19 0 38 -4 41
-10 4 -6 -10 -10 -34 -10 -23 0 -41 -5 -41 -10 0 -7 24 -10 63 -8 60 3 62 4
65 32 4 34 -6 46 -50 56 l-33 8 38 1 c26 1 37 6 37 16 0 11 -12 15 -47 14 -27
0 -54 -3 -60 -6z"/>
<path d="M140 1780 l0 -40 93 0 c50 0 109 3 130 6 34 6 37 9 37 40 l0 34 -130
0 -130 0 0 -40z"/>
<path d="M2240 1769 c0 -13 8 -23 23 -27 22 -6 22 -6 -3 -13 -22 -6 -20 -7 13
-8 33 -1 37 2 37 24 0 19 -5 25 -22 26 -22 1 -22 1 2 9 22 7 21 8 -12 9 -32 1
-38 -2 -38 -20z"/>
<path d="M2564 1776 c-12 -32 0 -51 36 -53 19 0 25 1 13 4 -16 3 -23 12 -23
28 0 17 7 25 23 28 16 3 13 5 -11 6 -20 0 -35 -4 -38 -13z"/>
<path d="M2680 1765 c0 -19 5 -25 23 -26 21 -1 21 -1 -3 -9 -24 -8 -23 -8 8
-9 28 -1 32 2 32 24 0 19 -5 25 -22 26 -22 1 -22 1 2 9 24 8 23 8 -7 9 -29 1
-33 -2 -33 -24z"/>
<path d="M2360 1745 c0 -22 4 -25 38 -24 33 1 34 2 12 9 -24 8 -24 8 -2 9 39
2 27 31 -13 31 -31 0 -35 -3 -35 -25z"/>
<path d="M2440 1745 c0 -32 27 -34 33 -2 l4 22 2 -22 c2 -32 31 -30 31 2 0 22
-4 25 -35 25 -31 0 -35 -3 -35 -25z"/>
<path d="M2320 1730 c0 -5 7 -10 15 -10 8 0 15 5 15 10 0 6 -7 10 -15 10 -8 0
-15 -4 -15 -10z"/>
<path d="M2525 1730 c-3 -5 1 -10 9 -10 9 0 16 5 16 10 0 6 -4 10 -9 10 -6 0
-13 -4 -16 -10z"/>
<path d="M2640 1730 c0 -5 5 -10 10 -10 6 0 10 5 10 10 0 6 -4 10 -10 10 -5 0
-10 -4 -10 -10z"/>
<path d="M2760 1730 c0 -5 5 -10 10 -10 6 0 10 5 10 10 0 6 -4 10 -10 10 -5 0
-10 -4 -10 -10z"/>
<path d="M10 585 l0 -575 1430 0 1430 0 0 575 0 575 -1430 0 -1430 0 0 -575z
m1181 230 c29 -15 39 -33 39 -70 0 -37 -24 -50 -69 -36 -52 15 -103 14 -126
-3 -28 -20 -7 -40 69 -66 110 -36 167 -105 152 -185 -15 -79 -88 -124 -203
-125 -39 0 -84 5 -100 11 -68 26 -94 87 -53 124 20 18 22 18 50 2 67 -40 165
-30 158 16 -2 16 -20 28 -75 49 -40 15 -84 35 -98 44 -70 46 -73 157 -6 218
48 44 194 55 262 21z m741 -1 c46 -24 61 -71 33 -108 -13 -17 -16 -17 -59 -1
-68 26 -139 17 -179 -24 -30 -29 -32 -36 -32 -101 0 -65 2 -72 32 -102 28 -28
39 -32 85 -33 l53 0 3 38 3 37 -45 0 c-43 0 -45 1 -51 34 -4 19 -2 43 4 55 11
19 20 21 104 21 59 0 97 -4 105 -12 8 -8 12 -49 12 -120 0 -96 -2 -109 -21
-127 -32 -30 -100 -44 -186 -39 -90 5 -144 29 -190 82 -42 47 -56 95 -51 180
3 60 9 82 33 122 35 56 99 100 165 113 55 12 145 4 182 -15z m-478 -6 c13 -19
16 -60 16 -245 l0 -223 -32 -1 c-60 -2 -83 2 -95 19 -10 11 -13 75 -13 237 0
122 3 225 7 228 3 4 28 7 54 7 38 0 51 -5 63 -22z"/>
</g>
</svg>
